
<svg xmlns="http://www.w3.org/2000/svg" viewBox="0 0 934.77 608.35"><defs><style>.cls-1{fill:#161b22;}.cls-2,.cls-3,.cls-8,.cls-9{isolation:isolate;}.cls-2,.cls-3,.cls-7,.cls-8,.cls-9{font-size:26.77px;font-family:Consolas;}.cls-2,.cls-4,.cls-7{fill:#c9d1d9;}.cls-3{fill:#a5d6ff;}.cls-5{fill:#17af84;}.cls-6,.cls-9{fill:#ffa657;}.cls-8{fill:#616e7f;}</style></defs><g id="Layer_2" data-name="Layer 2"><g id="Layer_1-2" data-name="Layer 1"><path class="cls-1" d="M23,0H911.78c12.69,0,23,12.38,23,27.65V580.7c0,15.27-10.3,27.65-23,27.65H23c-12.7,0-23-12.38-23-27.65V27.65C0,12.38,10.29,0,23,0Z"/><text class="cls-2" transform="translate(25.82 110.73)">cakadi190@github</text><text class="cls-3" transform="translate(25.82 40.97)"># cakadi190<tspan class="cls-4" x="161.9" y="0"> </tspan><tspan class="cls-5" x="176.62" y="0">in </tspan><tspan class="cls-6" x="220.78" y="0">CAKADI-THINKPAD</tspan><tspan class="cls-4" x="441.56" y="0" xml:space="preserve"> at </tspan><tspan class="cls-5" x="500.43" y="0">C:\Users\cakadi190</tspan><tspan x="0" y="32.13">$</tspan><tspan class="cls-4" x="14.72" y="32.13" xml:space="preserve"> fetchme</tspan></text><text class="cls-7" transform="translate(261.32 110.73)"><tspan xml:space="preserve"> -———————————————————————————————————————-—-</tspan></text><text class="cls-8" transform="translate(25.82 144.19)">. </text><text class="cls-9" transform="translate(55.26 144.19)">OS</text><text class="cls-7" transform="translate(84.7 144.19)">:</text><text class="cls-8" transform="translate(99.42 144.19)"><tspan xml:space="preserve"> .............................. </tspan></text><text class="cls-3" transform="translate(570.41 144.19)">Windows 11 Pro [64-bit]</text><text class="cls-8" transform="translate(25.82 177.66)">. </text><text class="cls-9" transform="translate(55.26 177.66)">Hos</text><text class="cls-7" transform="translate(114.14 177.66)">:</text><text class="cls-8" transform="translate(128.85 177.66)"><tspan xml:space="preserve"> ..................... </tspan></text><text class="cls-3" transform="translate(467.38 177.66)">LENOVO THINKPAD T15 20S7S2KU00</text><text class="cls-8" transform="translate(25.82 211.12)">. </text><text class="cls-9" transform="translate(55.26 211.12)">Kernel</text><text class="cls-7" transform="translate(143.57 211.12)">:</text><text class="cls-8" transform="translate(158.29 211.12)"><tspan xml:space="preserve"> .......................... </tspan></text><text class="cls-3" transform="translate(570.41 211.12)">WINDOWS NT 10.0.26100.0</text><text class="cls-8" transform="translate(25.82 244.58)">. </text><text class="cls-9" transform="translate(55.26 244.58)">IDE</text><text class="cls-7" transform="translate(99.42 244.58)">:</text><text class="cls-8" transform="translate(114.14 244.58)"><tspan xml:space="preserve"> .... </tspan></text><text class="cls-3" transform="translate(202.45 244.58)">VSCode 1.102.1 / Android Studio 2025.1.1 Patch 1</text><text class="cls-8" transform="translate(25.82 278.05)">. </text><text class="cls-8" transform="translate(25.82 311.51)">. </text><text class="cls-9" transform="translate(55.26 311.51)">Languages</text><text class="cls-7" transform="translate(187.73 311.51)">.</text><text class="cls-9" transform="translate(202.45 311.51)">Programming</text><text class="cls-7" transform="translate(364.35 311.51)">:</text><text class="cls-8" transform="translate(379.07 311.51)"><tspan xml:space="preserve"> ....... </tspan></text><text class="cls-3" transform="translate(511.54 311.51)">Dart, TypeScript, PHP, Java</text><text class="cls-8" transform="translate(25.82 344.97)">. </text><text class="cls-9" transform="translate(55.26 344.97)">Languages</text><text class="cls-7" transform="translate(187.73 344.97)">.</text><text class="cls-9" transform="translate(202.45 344.97)">Computer</text><text class="cls-7" transform="translate(320.2 344.97)">:</text><text class="cls-8" transform="translate(334.91 344.97)"><tspan xml:space="preserve"> .......... </tspan></text><text class="cls-3" transform="translate(511.54 344.97)">HTML, CSS, JSON, YAML, TOML</text><text class="cls-8" transform="translate(25.82 378.44)">. </text><text class="cls-9" transform="translate(55.26 378.44)">Languages</text><text class="cls-7" transform="translate(187.73 378.44)">.</text><text class="cls-9" transform="translate(202.45 378.44)">Real</text><text class="cls-7" transform="translate(261.32 378.44)">:</text><text class="cls-8" transform="translate(276.04 378.44)"><tspan xml:space="preserve"> ............. </tspan></text><text class="cls-3" transform="translate(496.82 378.44)">Indonesia, English, Javanese</text><text class="cls-2" transform="translate(25.82 445.36)">- Contact</text><text class="cls-7" transform="translate(158.29 445.36)"><tspan xml:space="preserve"> -——————————————————————————————————————————————-—-</tspan></text><text class="cls-8" transform="translate(25.82 478.83)">. </text><text class="cls-9" transform="translate(55.26 478.83)">Email</text><text class="cls-7" transform="translate(128.85 478.83)">:</text><text class="cls-8" transform="translate(143.57 478.83)"><tspan xml:space="preserve"> ........... </tspan></text><text class="cls-3" transform="translate(334.91 478.83)">cakadi190@gmail.com / cakadi@kodinus.id</text><text class="cls-8" transform="translate(25.82 512.29)">. </text><text class="cls-9" transform="translate(55.26 512.29)">WhatsApp</text><text class="cls-7" transform="translate(173.01 512.29)">:</text><text class="cls-8" transform="translate(187.73 512.29)"><tspan xml:space="preserve"> ............................. </tspan></text><text class="cls-3" transform="translate(644.01 512.29)">(+62)812-3477-1365</text><text class="cls-8" transform="translate(25.82 545.75)">. </text><text class="cls-9" transform="translate(55.26 545.75)">LinkedIn</text><text class="cls-7" transform="translate(173.01 545.75)">:</text><text class="cls-8" transform="translate(187.73 545.75)"><tspan xml:space="preserve"> ...................................... </tspan></text><text class="cls-3" transform="translate(776.47 545.75)">cakadi190</text><text class="cls-8" transform="translate(25.82 579.22)">. </text><text class="cls-9" transform="translate(55.26 579.22)">Insagram</text><text class="cls-7" transform="translate(187.73 579.22)">:</text><text class="cls-8" transform="translate(202.45 579.22)"><tspan xml:space="preserve"> ..................................... </tspan></text><text class="cls-3" transform="translate(776.47 579.22)">cakadi190</text></g></g></svg>
